<svg xmlns="http://www.w3.org/2000/svg" viewBox="0 0 1024 1024">
  <style>
    path { fill: #6750A4; }
    @media (prefers-color-scheme: dark) { path { fill: #D0BCFF; } }
  </style>
  <path d="M885.78 117.88c4.68 11.09 7.74 64.1 7.47 76.84-.99 33.13-8.67 65.72-22.57 95.81-29.66 64.3-89.26 111.49-158.25 126.38-16.6 3.59-33.61 5.46-49.63 11.21-23.93 8.59-46.89 29.17-57.36 52.45 57.36 2.5 101.38-.18 150.43-34.71 7.8-5.49 14.49-12.31 21.6-18.64-1.94 6.32-4.68 26.3-5.91 33.82-4.05 24.94-8.5 46.26-18.37 69.66-18.84 44.63-53.04 81.03-96.4 102.62-29.77 14.85-52.62 14.9-72.84 47.7-8.25 13.35-12.99 28.57-13.8 44.24-.42 8.97.05 18.41-1.02 27.29-10.65 88.38-85.09 149.87-171 156.11 5.6-19.69 12.03-39.32 18.17-58.87l23.32-74.85 16.48-53.18c6.15-20.19 12.16-46.15 23.72-63.14 19.78-29.1 50.95-39.77 84.85-37.7 24.89 1.52 50.53-7.56 70.21-22.93 23.17-18.34 38.09-45.15 41.46-74.51-52.05-.36-106.06 1.14-157.74-.18 8.09-23.82 15.07-49.1 22.69-73.08 9.19-28.93 10.92-45.67 36.03-66.13 34.45-28.09 73.39-14.22 113.67-18.68 17.38-2.07 34.16-7.63 49.35-16.34 23.85-13.73 42.98-35.8 53.86-61.12 3.05-7.1 5.08-15.08 7.09-22.55-6.86-.67-17.67-.2-24.83-.1-12.1.17-24.2.21-36.3.13-39.15-.38-78.29-.5-117.44-.37-24.88-.01-63.17-1.54-86.31 3.62-9.07 2.21-17.86 5.46-26.19 9.69-22.85 11.72-41.56 30.16-53.6 52.84-8.45 16.23-15.74 43.55-21.43 61.95l-27.85 88.77L281.31 880.94c-21.58-12.77-45.64-35.75-59.94-56.24-32.35-45.6-45.11-102.25-35.43-157.32 6.41-36.18 22.64-69.91 46.9-97.5 6.41-7.34 14.21-15.35 22.15-20.91-7.2 31.33 1.25 64.93 16.64 92.49 23-65.6 15.23-155.61-46.58-197.65-2.29-1.57-4.69-3.09-7.04-4.59 4.55-.01 9.11.04 13.66.15 44.95 1.17 86.43 11.94 118.58 45.77-8.29-17.11-13.81-36.41-16.84-55.16-9.93-59.37 4.18-120.25 39.22-169.2 33.13-46.24 83.29-77.4 139.42-86.61-2.97 5.08-7.18 10.49-10.35 15.65-8.33 13.56-18.45 33.4-23.01 48.42 23.59-32.55 48.94-59.1 84.41-78.14 42.34-22.73 88.76-31.91 136.15-22.81 9.99 1.92 19.66 3.49 29.6 6.5-4.41 1.62-9.16 3.37-13.48 5.22-28.84 12.23-51.66 35.38-63.47 64.4 3.99-.49 8.77-.15 12.84-.13 7.94.04 15.96.11 23.89.14 76.46.25 150.4-34.3 197.14-95.14Z"/>
</svg>
